<?xml version="1.0" encoding="UTF-8" standalone="no"?>
<svg
   xmlns:dc="http://purl.org/dc/elements/1.1/"
   xmlns:cc="http://creativecommons.org/ns#"
   xmlns:rdf="http://www.w3.org/1999/02/22-rdf-syntax-ns#"
   xmlns:svg="http://www.w3.org/2000/svg"
   xmlns="http://www.w3.org/2000/svg"
   xmlns:sodipodi="http://sodipodi.sourceforge.net/DTD/sodipodi-0.dtd"
   xmlns:inkscape="http://www.inkscape.org/namespaces/inkscape"
   version="1.1"
   x="0px"
   y="0px"
   viewBox="0 0 52.999999 53"
   enable-background="new 0 0 100 100"
   xml:space="preserve"
   id="svg10"
   sodipodi:docname="pill.svg"
   width="53"
   height="53"
   inkscape:version="0.92.2 (5c3e80d, 2017-08-06)"><metadata
     id="metadata16"><rdf:RDF><cc:Work
         rdf:about=""><dc:format>image/svg+xml</dc:format><dc:type
           rdf:resource="http://purl.org/dc/dcmitype/StillImage" /><dc:title></dc:title></cc:Work></rdf:RDF></metadata><defs
     id="defs14" /><sodipodi:namedview
     pagecolor="#ffffff"
     bordercolor="#666666"
     borderopacity="1"
     objecttolerance="10"
     gridtolerance="10"
     guidetolerance="10"
     inkscape:pageopacity="0"
     inkscape:pageshadow="2"
     inkscape:window-width="1366"
     inkscape:window-height="705"
     id="namedview12"
     showgrid="false"
     fit-margin-top="0"
     fit-margin-left="0"
     fit-margin-right="0"
     fit-margin-bottom="0"
     inkscape:zoom="1.888"
     inkscape:cx="-66.874665"
     inkscape:cy="8.1995"
     inkscape:window-x="-8"
     inkscape:window-y="-8"
     inkscape:window-maximized="1"
     inkscape:current-layer="svg10" /><path
     d="m 15.87825,19.558501 c -0.377,-0.377 -0.989,-0.377 -1.367,0 -0.378,0.377 -0.377,0.989 0,1.367 l 5.031,5.031 c 0.378,0.377 0.989,0.376 1.367,0 0.377,-0.378 0.378,-0.99 0,-1.367 z"
     id="path2"
     inkscape:connector-curvature="0" /><path
     d="m 21.721538,11.186213 c -3.995,-3.9939997 -10.495,-3.9939997 -14.4879999,0 -3.995,3.994 -3.995,10.494 0,14.488 l 20.0919999,20.093 c 3.994,3.994 10.494,3.994 14.488,0 3.994,-3.994 3.995,-10.494 0,-14.488 z m 7.519,13.139 -9.04,9.04 c -0.422,0.423 -1.151,0.564 -1.901,0.022 l -9.4259999,-9.353 c -3.09,-3.091 -3.09,-8.118 0,-11.208 3.0899999,-3.0910001 8.1179999,-3.0900001 11.2079999,0 l 9.254,9.254 c 0.546,0.657 0.521,1.629 -0.095,2.245 z m 10.793,15.388 c -0.159,0.448 -0.65,0.683 -1.099,0.524 -0.124,-0.046 -0.232,-0.114 -0.32,-0.203 -0.227,-0.228 -0.316,-0.573 -0.202,-0.896 0.501,-1.413 0.14,-3.009 -0.918,-4.067 l -1.827,-1.828 c -0.337,-0.336 -0.337,-0.881 0,-1.217 0.336,-0.335 0.88,-0.335 1.216,0 l 1.827,1.828 c 1.525,1.525 2.043,3.825 1.323,5.859 z"
     id="path4"
     inkscape:connector-curvature="0" /></svg>