<?xml version="1.0" encoding="UTF-8" standalone="no"?>
<svg
   xmlns:dc="http://purl.org/dc/elements/1.1/"
   xmlns:cc="http://creativecommons.org/ns#"
   xmlns:rdf="http://www.w3.org/1999/02/22-rdf-syntax-ns#"
   xmlns:svg="http://www.w3.org/2000/svg"
   xmlns="http://www.w3.org/2000/svg"
   xmlns:sodipodi="http://sodipodi.sourceforge.net/DTD/sodipodi-0.dtd"
   xmlns:inkscape="http://www.inkscape.org/namespaces/inkscape"
   viewBox="0 0 34 34"
   enable-background="new 0 0 50 50"
   id="svg3363"
   version="1.1"
   inkscape:version="0.91 r13725"
   sodipodi:docname="play_go.svg"
   width="34"
   height="34">
  <metadata
     id="metadata3373">
    <rdf:RDF>
      <cc:Work
         rdf:about="">
        <dc:format>image/svg+xml</dc:format>
        <dc:type
           rdf:resource="http://purl.org/dc/dcmitype/StillImage" />
        <dc:title></dc:title>
      </cc:Work>
    </rdf:RDF>
  </metadata>
  <defs
     id="defs3371" />
  <sodipodi:namedview
     pagecolor="#ffffff"
     bordercolor="#666666"
     borderopacity="1"
     objecttolerance="10"
     gridtolerance="10"
     guidetolerance="10"
     inkscape:pageopacity="0"
     inkscape:pageshadow="2"
     inkscape:window-width="1366"
     inkscape:window-height="705"
     id="namedview3369"
     showgrid="false"
     fit-margin-top="0"
     fit-margin-left="0"
     fit-margin-right="0"
     fit-margin-bottom="0"
     inkscape:zoom="4.72"
     inkscape:cx="-10.177966"
     inkscape:cy="44.399053"
     inkscape:window-x="-8"
     inkscape:window-y="-8"
     inkscape:window-maximized="1"
     inkscape:current-layer="svg3363" />
  <ellipse
     style="opacity:1;fill:#000000;fill-opacity:1;stroke:none;stroke-width:0.2;stroke-miterlimit:4;stroke-dasharray:none;stroke-opacity:1"
     id="path4179"
     cx="17.055084"
     cy="16.733051"
     rx="16.84322"
     ry="16.631355" />
  <path
     d="m 17,33.788135 c -9.3999996,0 -16.9999996440678,-7.6 -16.9999996440678,-17 C 3.559322e-7,7.3881353 7.6000004,-0.21186443 17,-0.21186443 c 9.4,0 17,7.59999973 17,16.99999943 0,9.4 -7.6,17 -17,17 z M 17,1.7881356 c -8.2999996,0 -14.9999996,6.6999997 -14.9999996,14.9999994 0,8.3 6.7,15 14.9999996,15 8.3,0 15,-6.7 15,-15 C 32,8.4881353 25.3,1.7881356 17,1.7881356 Z"
     id="path3365"
     inkscape:connector-curvature="0"
     style="fill:#00ff00;stroke:none" />
  <path
     d="M 12,25.7 12,8.3 27,17 12,25.7 Z m 2,-14 0,10.5 9,-5.3 -9,-5.2 z"
     id="path3367"
     inkscape:connector-curvature="0"
     style="fill:#00ff00" />
</svg>
